<mxfile host="app.diagrams.net" modified="2024-01-31T10:43:52.451Z" agent="Mozilla/5.0 (Macintosh; Intel Mac OS X 10_15_7) AppleWebKit/605.1.15 (KHTML, like Gecko) Version/17.2 Safari/605.1.15" version="23.0.2" etag="JVHioSPKOjDBZcBKprpm" type="github">
  <diagram name="Page-1" id="gBym16xAkiYV4ScmXRbI">
    <mxGraphModel>
      <root>
        <mxCell id="0" />
        <mxCell id="1" parent="0" />
      </root>
    </mxGraphModel>
  </diagram>
</mxfile>
